<?xml version="1.0" encoding="utf-8"?>
<!-- Svg Vector Icons : http://www.onlinewebfonts.com/icon -->
<!DOCTYPE svg PUBLIC "-//W3C//DTD SVG 1.1//EN" "http://www.w3.org/Graphics/SVG/1.1/DTD/svg11.dtd">
<svg version="1.1" xmlns="http://www.w3.org/2000/svg" xmlns:xlink="http://www.w3.org/1999/xlink" x="0px" y="0px" viewBox="0 0 1000 1000" enable-background="new 0 0 1000 1000" xml:space="preserve">
<metadata> Svg Vector Icons : http://www.onlinewebfonts.com/icon </metadata>
<g><g><g><path d="M99.6,416.3c-1,0-1.9,0.1-2.8,0.2c-0.5,0-1-0.2-1.5-0.2c-22.2,0-22.2,18,0,18c0.9,0,1.7-0.1,2.6-0.3c0.6,0.1,1.1,0.2,1.7,0.3c83.6,4,167.5,20.4,247.3,48.6c20.9,7.4,29.9-25.8,9.1-33.1C273.4,420.7,186.3,420.4,99.6,416.3z"/><path d="M351.5,526.5c22.2,0.3,22.1-34.1,0-34.3c-110.3-1.2-217.9,19.9-325.2,43.5c-1.4,0.3-2.6,0.8-3.8,1.3c-18,3.9-16.7,17.6,4,17.6c3.2,0,5.8-0.8,8.1-2c0.3,0,0.5,0,0.8-0.1C139.8,529.5,244.3,525.3,351.5,526.5z"/><path d="M349.8,534.3c-60.5,12.6-117.2,35.7-173,61.8c-20,9.4-2.6,22.7,17.3,13.4c53.2-24.9,107.2-30.1,164.8-42.1C380.6,562.9,371.5,529.8,349.8,534.3z"/><path d="M903.2,416.4c-0.9-0.1-1.8-0.2-2.8-0.2c-86.6,4.1-173.7,4.4-256.5,33.6c-20.7,7.3-11.8,40.5,9.1,33.1c79.9-28.2,163.7-44.6,247.3-48.6c0.6,0,1.1-0.2,1.7-0.3c0.8,0.1,1.7,0.3,2.6,0.3c22.2,0,22.2-18,0-18C904.1,416.3,903.7,416.4,903.2,416.4z"/><path d="M977.4,537c-1.1-0.5-2.4-0.9-3.7-1.3c-107.3-23.7-214.9-44.8-325.2-43.5c-22.1,0.2-22.2,34.6,0,34.3c107.3-1.2,211.8,3,316.1,26c0.3,0.1,0.5,0,0.8,0.1c2.3,1.2,4.9,2,8.1,2C994.1,554.6,995.4,540.9,977.4,537z"/><path d="M823.2,596.1c-55.8-26.2-112.5-49.2-173-61.8c-21.6-4.5-30.8,28.6-9.1,33.1c57.6,12,111.6,17.1,164.8,42.1C825.8,618.8,843.2,605.5,823.2,596.1z"/><path d="M534.6,401.4c-18.8-18.7-49.2-18.7-67.9,0l-37.3,8.5c-18.8,18.7-18.8,49.2,0,67.9l37.3,37.3c18.8,18.7,49.2,18.7,67.9,0l37.3-37.3c18.7-18.8,18.7-49.2,0-67.9L534.6,401.4z"/></g></g><g></g><g></g><g></g><g></g><g></g><g></g><g></g><g></g><g></g><g></g><g></g><g></g><g></g><g></g><g></g></g>
</svg>